# xmcd CD database file
#
# Track frame offsets:
#	150
#	17185
#	42203
#	67760
#	92791
#	113838
#	137347
#	159213
#
# Disc length: 2446 seconds
#
# Revision: 0
# Processed by: cddbd v1.5PL3 Copyright (c) Steve Scherf et al.
# Submitted via: CDex 1.51
#
DISCID=57098c08
DTITLE=Dig - Japop
DYEAR=1900
DGENRE=Jazz
TTITLE0=Dig It
TTITLE1=Bop Minority
TTITLE2=Cry Baby Soup
TTITLE3=Live
TTITLE4=Bout Bird
TTITLE5=Rock Lobster
TTITLE6=Bad Dog
TTITLE7=Mr Whites Original Sin
EXTD=
EXTT0=
EXTT1=
EXTT2=
EXTT3=
EXTT4=
EXTT5=
EXTT6=
EXTT7=
PLAYORDER=
